<svg xmlns="http://www.w3.org/2000/svg" viewBox="0 0 512 512"><defs><style>.cls-1{fill:#fff;stroke:#f5f5f5;stroke-miterlimit:10;stroke-width:10px;}.cls-2{font-size:39px;fill:#535556;font-family:TrebuchetMS, Trebuchet MS;letter-spacing:0.01em;}.cls-3{fill:#f5f5f5;}.cls-4{fill:#2eb4cc;}.cls-5{fill:#ffd725;}.cls-6{fill:#dc2b60;}</style></defs><g id="Layer_1" data-name="Layer 1"><path class="cls-1" d="M185.06,127.66H294.53a18.48,18.48,0,0,1,5.06.23c1.87.32,3.55,2.79,5,4.3,12,12.29,34.95,35.32,45.27,45.89,3.81,3.91,3.13,2.54,4,4.6.73,1.81.45,6.47.44,11.46-.05,27-.69,113.42-.78,161.92a15.82,15.82,0,0,1-15.79,15.79l-153.45.34a15.83,15.83,0,0,1-15.86-15.81l-.11-213.44c0-1.58.64-7.28,4.19-10.52S182.62,127.66,185.06,127.66Z"/><text class="cls-2" transform="translate(231.94 185.62)">QF</text><path class="cls-3" d="M299.59,127.89v42.35a11.53,11.53,0,0,0,11.3,11.54c14.3.27,28.82.9,43,.9C336,164.75,317.47,145.81,299.59,127.89Z"/></g><g id="Layer_3" data-name="Layer 3"><rect class="cls-4" x="138.53" y="216.64" width="110.72" height="110.72" rx="13.08"/><rect class="cls-5" x="318.19" y="206.62" width="66.91" height="66.91" rx="13.08"/><rect class="cls-6" x="288.3" y="229.89" width="78.96" height="78.96" rx="13.08"/></g></svg>